simulation
nRows=50
nColumns=15
endheader
time  TH_x TH_y TH_z SC_y  SC_z  SC_x  AC_y  AC_z  AC_x  GH_y  GH_z  GH_yy  EL_x  PS_y
0.774501  0.000000  0.000000  0.000000  -30.227603  0.258319  4.990013  53.084596  4.717709  -7.957287  29.587159  26.018986  -17.271833  21.520717  0.000000
0.775499  0.000000  0.000000  0.000000  -30.227712  0.263744  5.003852  53.088871  4.719033  -7.957072  29.557558  26.078040  -17.264323  21.518586  0.000000
0.776497  0.000000  0.000000  0.000000  -30.227798  0.269171  5.017745  53.093145  4.720358  -7.956881  29.528063  26.137108  -17.256881  21.516438  0.000000
0.777495  0.000000  0.000000  0.000000  -30.227863  0.274600  5.031693  53.097419  4.721683  -7.956714  29.498673  26.196189  -17.249507  21.514272  0.000000
0.778493  0.000000  0.000000  0.000000  -30.227905  0.280031  5.045695  53.101692  4.723008  -7.956571  29.469387  26.255283  -17.242200  21.512089  0.000000
0.779491  0.000000  0.000000  0.000000  -30.227926  0.285465  5.059754  53.105966  4.724333  -7.956451  29.440201  26.314386  -17.234955  21.509888  0.000000
0.780489  0.000000  0.000000  0.000000  -30.227929  0.290901  5.073875  53.110243  4.725664  -7.956347  29.411113  26.373483  -17.227771  21.507670  0.000000
0.781487  0.000000  0.000000  0.000000  -30.227915  0.296338  5.088062  53.114528  4.727003  -7.956260  29.382121  26.432569  -17.220648  21.505436  0.000000
0.782486  0.000000  0.000000  0.000000  -30.227884  0.301778  5.102318  53.118824  4.728352  -7.956191  29.353228  26.491638  -17.213592  21.503185  0.000000
0.783484  0.000000  0.000000  0.000000  -30.227838  0.307220  5.116643  53.123133  4.729716  -7.956140  29.324439  26.550685  -17.206611  21.500918  0.000000
0.784482  0.000000  0.000000  0.000000  -30.227775  0.312663  5.131038  53.127458  4.731093  -7.956110  29.295756  26.609710  -17.199709  21.498632  0.000000
0.785480  0.000000  0.000000  0.000000  -30.227697  0.318108  5.145504  53.131799  4.732487  -7.956103  29.267183  26.668709  -17.192893  21.496329  0.000000
0.786478  0.000000  0.000000  0.000000  -30.227602  0.323553  5.160041  53.136157  4.733896  -7.956119  29.238721  26.727683  -17.186163  21.494008  0.000000
0.787476  0.000000  0.000000  0.000000  -30.227490  0.329000  5.174650  53.140531  4.735322  -7.956159  29.210373  26.786630  -17.179520  21.491670  0.000000
0.788474  0.000000  0.000000  0.000000  -30.227362  0.334448  5.189330  53.144918  4.736764  -7.956223  29.182139  26.845550  -17.172965  21.489313  0.000000
0.789472  0.000000  0.000000  0.000000  -30.227216  0.339896  5.204083  53.149318  4.738221  -7.956312  29.154020  26.904443  -17.166496  21.486938  0.000000
0.790470  0.000000  0.000000  0.000000  -30.227054  0.345345  5.218908  53.153730  4.739694  -7.956426  29.126016  26.963310  -17.160113  21.484546  0.000000
0.791468  0.000000  0.000000  0.000000  -30.226873  0.350794  5.233805  53.158152  4.741180  -7.956565  29.098126  27.022152  -17.153815  21.482136  0.000000
0.792466  0.000000  0.000000  0.000000  -30.226673  0.356243  5.248773  53.162583  4.742679  -7.956730  29.070351  27.080968  -17.147602  21.479708  0.000000
0.793464  0.000000  0.000000  0.000000  -30.226454  0.361692  5.263812  53.167024  4.744190  -7.956922  29.042690  27.139762  -17.141474  21.477263  0.000000
0.794462  0.000000  0.000000  0.000000  -30.226216  0.367141  5.278921  53.171472  4.745713  -7.957142  29.015143  27.198532  -17.135431  21.474800  0.000000
0.795460  0.000000  0.000000  0.000000  -30.225957  0.372589  5.294101  53.175929  4.747245  -7.957389  28.987709  27.257281  -17.129472  21.472320  0.000000
0.796458  0.000000  0.000000  0.000000  -30.225678  0.378038  5.309350  53.180392  4.748786  -7.957664  28.960388  27.316010  -17.123596  21.469822  0.000000
0.797457  0.000000  0.000000  0.000000  -30.225378  0.383486  5.324668  53.184862  4.750336  -7.957968  28.933179  27.374719  -17.117803  21.467307  0.000000
0.798455  0.000000  0.000000  0.000000  -30.225057  0.388934  5.340055  53.189338  4.751893  -7.958301  28.906081  27.433408  -17.112091  21.464774  0.000000
0.799453  0.000000  0.000000  0.000000  -30.224715  0.394381  5.355511  53.193819  4.753455  -7.958662  28.879094  27.492080  -17.106460  21.462224  0.000000
0.800451  0.000000  0.000000  0.000000  -30.224350  0.399827  5.371036  53.198305  4.755023  -7.959052  28.852217  27.550733  -17.100909  21.459656  0.000000
0.801449  0.000000  0.000000  0.000000  -30.223964  0.405273  5.386628  53.202795  4.756595  -7.959471  28.825449  27.609369  -17.095437  21.457071  0.000000
0.802447  0.000000  0.000000  0.000000  -30.223555  0.410719  5.402289  53.207289  4.758171  -7.959920  28.798790  27.667989  -17.090043  21.454468  0.000000
0.803445  0.000000  0.000000  0.000000  -30.223125  0.416164  5.418018  53.211787  4.759750  -7.960397  28.772239  27.726591  -17.084728  21.451848  0.000000
0.804443  0.000000  0.000000  0.000000  -30.222672  0.421608  5.433814  53.216288  4.761331  -7.960904  28.745796  27.785178  -17.079489  21.449210  0.000000
0.805441  0.000000  0.000000  0.000000  -30.222197  0.427052  5.449678  53.220794  4.762913  -7.961441  28.719460  27.843748  -17.074327  21.446554  0.000000
0.806439  0.000000  0.000000  0.000000  -30.221700  0.432495  5.465609  53.225302  4.764496  -7.962006  28.693231  27.902302  -17.069241  21.443881  0.000000
0.807437  0.000000  0.000000  0.000000  -30.221180  0.437938  5.481608  53.229814  4.766079  -7.962601  28.667109  27.960839  -17.064230  21.441189  0.000000
0.808435  0.000000  0.000000  0.000000  -30.220638  0.443381  5.497674  53.234328  4.767663  -7.963226  28.641093  28.019361  -17.059295  21.438480  0.000000
0.809433  0.000000  0.000000  0.000000  -30.220074  0.448823  5.513809  53.238846  4.769245  -7.963879  28.615183  28.077866  -17.054435  21.435753  0.000000
0.810431  0.000000  0.000000  0.000000  -30.219489  0.454265  5.530012  53.243368  4.770828  -7.964561  28.589376  28.136351  -17.049645  21.433007  0.000000
0.811429  0.000000  0.000000  0.000000  -30.218883  0.459706  5.546286  53.247895  4.772412  -7.965269  28.563669  28.194812  -17.044925  21.430244  0.000000
0.812428  0.000000  0.000000  0.000000  -30.218258  0.465148  5.562634  53.252429  4.773998  -7.966002  28.538060  28.253244  -17.040273  21.427464  0.000000
0.813426  0.000000  0.000000  0.000000  -30.217613  0.470588  5.579056  53.256971  4.775586  -7.966760  28.512549  28.311645  -17.035691  21.424666  0.000000
0.814424  0.000000  0.000000  0.000000  -30.216949  0.476027  5.595552  53.261523  4.777179  -7.967544  28.487138  28.370012  -17.031182  21.421850  0.000000
0.815422  0.000000  0.000000  0.000000  -30.216267  0.481465  5.612124  53.266088  4.778776  -7.968355  28.461827  28.428345  -17.026749  21.419016  0.000000
0.816420  0.000000  0.000000  0.000000  -30.215565  0.486902  5.628770  53.270664  4.780378  -7.969194  28.436617  28.486643  -17.022394  21.416164  0.000000
0.817418  0.000000  0.000000  0.000000  -30.214844  0.492337  5.645492  53.275252  4.781985  -7.970061  28.411509  28.544905  -17.018118  21.413293  0.000000
0.818416  0.000000  0.000000  0.000000  -30.214105  0.497771  5.662289  53.279853  4.783597  -7.970958  28.386504  28.603131  -17.013922  21.410402  0.000000
0.819414  0.000000  0.000000  0.000000  -30.213346  0.503202  5.679163  53.284464  4.785214  -7.971884  28.361604  28.661319  -17.009806  21.407493  0.000000
0.820412  0.000000  0.000000  0.000000  -30.212568  0.508632  5.696113  53.289086  4.786835  -7.972839  28.336807  28.719469  -17.005769  21.404564  0.000000
0.821410  0.000000  0.000000  0.000000  -30.211771  0.514060  5.713139  53.293718  4.788461  -7.973823  28.312115  28.777581  -17.001811  21.401616  0.000000
0.822408  0.000000  0.000000  0.000000  -30.210955  0.519485  5.730242  53.298359  4.790092  -7.974838  28.287527  28.835653  -16.997932  21.398649  0.000000
0.823406  0.000000  0.000000  0.000000  -30.210120  0.524909  5.747422  53.303009  4.791726  -7.975882  28.263044  28.893687  -16.994133  21.395662  0.000000
